<svg width="3.5in" height="2in" viewBox="0 0 1050 600" xmlns="http://www.w3.org/2000/svg" role="img" aria-labelledby="title-back desc-back">
<title id="title-back">Sanjay Selvaraj business card — back</title>
<desc id="desc-back">Dark navy business card back with contact details (email, website, GitHub, LinkedIn) and a QR code linking to the website.</desc>
<defs>
<style>
  .name { font-family: 'Space Grotesk', system-ui, sans-serif; font-weight: 600; }
  .body { font-family: 'Inter', system-ui, sans-serif; }
</style>
</defs>
<rect width="1050" height="600" fill="#090d18"/>
<rect x="0" y="0" width="1050" height="600" fill="none" stroke="#232f4d" stroke-width="2"/>

<g transform="translate(90,150)">
  <circle cx="14" cy="0" r="14" fill="none" stroke="#44e0c4" stroke-width="2"/>
  <path d="M2,-7 L14,2 L26,-7" fill="none" stroke="#44e0c4" stroke-width="2"/>
  <text x="48" y="9" class="body" font-size="26" fill="#eef1fa">sanjayragavan27@gmail.com</text>
</g>

<g transform="translate(90,230)">
  <circle cx="14" cy="0" r="14" fill="none" stroke="#44e0c4" stroke-width="2"/>
  <line x1="0" y1="0" x2="28" y2="0" stroke="#44e0c4" stroke-width="2"/>
  <line x1="14" y1="-14" x2="14" y2="14" stroke="#44e0c4" stroke-width="2"/>
  <text x="48" y="9" class="body" font-size="26" fill="#eef1fa">sanjay-ragavan.github.io</text>
</g>

<g transform="translate(90,310)">
  <path d="M14,-14 C5,-14 -1,-8 -1,1 C-1,9 4,12 6,12 C7,12 7,10 7,9 C7,8 4,7 4,3 C4,-2 7,-5 13,-5 C19,-5 23,-2 23,3 C23,7 20,8 20,9 C20,10 20,12 21,12 C23,12 28,9 28,1 C28,-8 23,-14 14,-14 Z" fill="none" stroke="#44e0c4" stroke-width="2"/>
  <text x="48" y="9" class="body" font-size="26" fill="#eef1fa">github.com/sanjay-ragavan</text>
</g>

<g transform="translate(90,390)">
  <rect x="0" y="-14" width="28" height="28" rx="4" fill="none" stroke="#44e0c4" stroke-width="2"/>
  <text x="7" y="9" class="name" font-size="18" fill="#44e0c4">in</text>
  <text x="48" y="9" class="body" font-size="26" fill="#eef1fa">linkedin.com/in/sanjay-ragavan</text>
</g>

<rect x="90" y="460" width="64" height="4" fill="#44e0c4"/>
<text x="90" y="510" class="body" font-size="22" fill="#9aa6c2">Reliability is the product.</text>

<rect x="740" y="170" width="220" height="220" rx="8" fill="#ffffff"/>
<g fill="#090d18">
<rect x="763.78" y="193.78" width="5.95" height="5.95"/><rect x="769.73" y="193.78" width="5.95" height="5.95"/><rect x="775.68" y="193.78" width="5.95" height="5.95"/><rect x="781.62" y="193.78" width="5.95" height="5.95"/><rect x="787.57" y="193.78" width="5.95" height="5.95"/><rect x="793.51" y="193.78" width="5.95" height="5.95"/><rect x="799.46" y="193.78" width="5.95" height="5.95"/><rect x="829.19" y="193.78" width="5.95" height="5.95"/><rect x="835.14" y="193.78" width="5.95" height="5.95"/><rect x="852.97" y="193.78" width="5.95" height="5.95"/><rect x="858.92" y="193.78" width="5.95" height="5.95"/><rect x="864.86" y="193.78" width="5.95" height="5.95"/><rect x="870.81" y="193.78" width="5.95" height="5.95"/><rect x="876.76" y="193.78" width="5.95" height="5.95"/><rect x="894.59" y="193.78" width="5.95" height="5.95"/><rect x="900.54" y="193.78" width="5.95" height="5.95"/><rect x="906.49" y="193.78" width="5.95" height="5.95"/><rect x="912.43" y="193.78" width="5.95" height="5.95"/><rect x="918.38" y="193.78" width="5.95" height="5.95"/><rect x="924.32" y="193.78" width="5.95" height="5.95"/><rect x="930.27" y="193.78" width="5.95" height="5.95"/><rect x="763.78" y="199.73" width="5.95" height="5.95"/><rect x="799.46" y="199.73" width="5.95" height="5.95"/><rect x="823.24" y="199.73" width="5.95" height="5.95"/><rect x="829.19" y="199.73" width="5.95" height="5.95"/><rect x="864.86" y="199.73" width="5.95" height="5.95"/><rect x="894.59" y="199.73" width="5.95" height="5.95"/><rect x="930.27" y="199.73" width="5.95" height="5.95"/><rect x="763.78" y="205.68" width="5.95" height="5.95"/><rect x="775.68" y="205.68" width="5.95" height="5.95"/><rect x="781.62" y="205.68" width="5.95" height="5.95"/><rect x="787.57" y="205.68" width="5.95" height="5.95"/><rect x="799.46" y="205.68" width="5.95" height="5.95"/><rect x="811.35" y="205.68" width="5.95" height="5.95"/><rect x="817.30" y="205.68" width="5.95" height="5.95"/><rect x="829.19" y="205.68" width="5.95" height="5.95"/><rect x="847.03" y="205.68" width="5.95" height="5.95"/><rect x="858.92" y="205.68" width="5.95" height="5.95"/><rect x="870.81" y="205.68" width="5.95" height="5.95"/><rect x="876.76" y="205.68" width="5.95" height="5.95"/><rect x="882.70" y="205.68" width="5.95" height="5.95"/><rect x="894.59" y="205.68" width="5.95" height="5.95"/><rect x="906.49" y="205.68" width="5.95" height="5.95"/><rect x="912.43" y="205.68" width="5.95" height="5.95"/><rect x="918.38" y="205.68" width="5.95" height="5.95"/><rect x="930.27" y="205.68" width="5.95" height="5.95"/><rect x="763.78" y="211.62" width="5.95" height="5.95"/><rect x="775.68" y="211.62" width="5.95" height="5.95"/><rect x="781.62" y="211.62" width="5.95" height="5.95"/><rect x="787.57" y="211.62" width="5.95" height="5.95"/><rect x="799.46" y="211.62" width="5.95" height="5.95"/><rect x="811.35" y="211.62" width="5.95" height="5.95"/><rect x="823.24" y="211.62" width="5.95" height="5.95"/><rect x="835.14" y="211.62" width="5.95" height="5.95"/><rect x="858.92" y="211.62" width="5.95" height="5.95"/><rect x="864.86" y="211.62" width="5.95" height="5.95"/><rect x="876.76" y="211.62" width="5.95" height="5.95"/><rect x="894.59" y="211.62" width="5.95" height="5.95"/><rect x="906.49" y="211.62" width="5.95" height="5.95"/><rect x="912.43" y="211.62" width="5.95" height="5.95"/><rect x="918.38" y="211.62" width="5.95" height="5.95"/><rect x="930.27" y="211.62" width="5.95" height="5.95"/><rect x="763.78" y="217.57" width="5.95" height="5.95"/><rect x="775.68" y="217.57" width="5.95" height="5.95"/><rect x="781.62" y="217.57" width="5.95" height="5.95"/><rect x="787.57" y="217.57" width="5.95" height="5.95"/><rect x="799.46" y="217.57" width="5.95" height="5.95"/><rect x="811.35" y="217.57" width="5.95" height="5.95"/><rect x="817.30" y="217.57" width="5.95" height="5.95"/><rect x="823.24" y="217.57" width="5.95" height="5.95"/><rect x="829.19" y="217.57" width="5.95" height="5.95"/><rect x="835.14" y="217.57" width="5.95" height="5.95"/><rect x="841.08" y="217.57" width="5.95" height="5.95"/><rect x="847.03" y="217.57" width="5.95" height="5.95"/><rect x="852.97" y="217.57" width="5.95" height="5.95"/><rect x="870.81" y="217.57" width="5.95" height="5.95"/><rect x="876.76" y="217.57" width="5.95" height="5.95"/><rect x="882.70" y="217.57" width="5.95" height="5.95"/><rect x="894.59" y="217.57" width="5.95" height="5.95"/><rect x="906.49" y="217.57" width="5.95" height="5.95"/><rect x="912.43" y="217.57" width="5.95" height="5.95"/><rect x="918.38" y="217.57" width="5.95" height="5.95"/><rect x="930.27" y="217.57" width="5.95" height="5.95"/><rect x="763.78" y="223.51" width="5.95" height="5.95"/><rect x="799.46" y="223.51" width="5.95" height="5.95"/><rect x="811.35" y="223.51" width="5.95" height="5.95"/><rect x="817.30" y="223.51" width="5.95" height="5.95"/><rect x="841.08" y="223.51" width="5.95" height="5.95"/><rect x="847.03" y="223.51" width="5.95" height="5.95"/><rect x="852.97" y="223.51" width="5.95" height="5.95"/><rect x="858.92" y="223.51" width="5.95" height="5.95"/><rect x="864.86" y="223.51" width="5.95" height="5.95"/><rect x="882.70" y="223.51" width="5.95" height="5.95"/><rect x="894.59" y="223.51" width="5.95" height="5.95"/><rect x="930.27" y="223.51" width="5.95" height="5.95"/><rect x="763.78" y="229.46" width="5.95" height="5.95"/><rect x="769.73" y="229.46" width="5.95" height="5.95"/><rect x="775.68" y="229.46" width="5.95" height="5.95"/><rect x="781.62" y="229.46" width="5.95" height="5.95"/><rect x="787.57" y="229.46" width="5.95" height="5.95"/><rect x="793.51" y="229.46" width="5.95" height="5.95"/><rect x="799.46" y="229.46" width="5.95" height="5.95"/><rect x="811.35" y="229.46" width="5.95" height="5.95"/><rect x="823.24" y="229.46" width="5.95" height="5.95"/><rect x="835.14" y="229.46" width="5.95" height="5.95"/><rect x="847.03" y="229.46" width="5.95" height="5.95"/><rect x="858.92" y="229.46" width="5.95" height="5.95"/><rect x="870.81" y="229.46" width="5.95" height="5.95"/><rect x="882.70" y="229.46" width="5.95" height="5.95"/><rect x="894.59" y="229.46" width="5.95" height="5.95"/><rect x="900.54" y="229.46" width="5.95" height="5.95"/><rect x="906.49" y="229.46" width="5.95" height="5.95"/><rect x="912.43" y="229.46" width="5.95" height="5.95"/><rect x="918.38" y="229.46" width="5.95" height="5.95"/><rect x="924.32" y="229.46" width="5.95" height="5.95"/><rect x="930.27" y="229.46" width="5.95" height="5.95"/><rect x="811.35" y="235.41" width="5.95" height="5.95"/><rect x="817.30" y="235.41" width="5.95" height="5.95"/><rect x="823.24" y="235.41" width="5.95" height="5.95"/><rect x="835.14" y="235.41" width="5.95" height="5.95"/><rect x="841.08" y="235.41" width="5.95" height="5.95"/><rect x="852.97" y="235.41" width="5.95" height="5.95"/><rect x="763.78" y="241.35" width="5.95" height="5.95"/><rect x="775.68" y="241.35" width="5.95" height="5.95"/><rect x="781.62" y="241.35" width="5.95" height="5.95"/><rect x="787.57" y="241.35" width="5.95" height="5.95"/><rect x="793.51" y="241.35" width="5.95" height="5.95"/><rect x="799.46" y="241.35" width="5.95" height="5.95"/><rect x="817.30" y="241.35" width="5.95" height="5.95"/><rect x="823.24" y="241.35" width="5.95" height="5.95"/><rect x="829.19" y="241.35" width="5.95" height="5.95"/><rect x="835.14" y="241.35" width="5.95" height="5.95"/><rect x="847.03" y="241.35" width="5.95" height="5.95"/><rect x="852.97" y="241.35" width="5.95" height="5.95"/><rect x="864.86" y="241.35" width="5.95" height="5.95"/><rect x="894.59" y="241.35" width="5.95" height="5.95"/><rect x="900.54" y="241.35" width="5.95" height="5.95"/><rect x="906.49" y="241.35" width="5.95" height="5.95"/><rect x="912.43" y="241.35" width="5.95" height="5.95"/><rect x="918.38" y="241.35" width="5.95" height="5.95"/><rect x="781.62" y="247.30" width="5.95" height="5.95"/><rect x="835.14" y="247.30" width="5.95" height="5.95"/><rect x="852.97" y="247.30" width="5.95" height="5.95"/><rect x="858.92" y="247.30" width="5.95" height="5.95"/><rect x="864.86" y="247.30" width="5.95" height="5.95"/><rect x="870.81" y="247.30" width="5.95" height="5.95"/><rect x="876.76" y="247.30" width="5.95" height="5.95"/><rect x="882.70" y="247.30" width="5.95" height="5.95"/><rect x="888.65" y="247.30" width="5.95" height="5.95"/><rect x="894.59" y="247.30" width="5.95" height="5.95"/><rect x="900.54" y="247.30" width="5.95" height="5.95"/><rect x="906.49" y="247.30" width="5.95" height="5.95"/><rect x="930.27" y="247.30" width="5.95" height="5.95"/><rect x="763.78" y="253.24" width="5.95" height="5.95"/><rect x="775.68" y="253.24" width="5.95" height="5.95"/><rect x="787.57" y="253.24" width="5.95" height="5.95"/><rect x="799.46" y="253.24" width="5.95" height="5.95"/><rect x="805.41" y="253.24" width="5.95" height="5.95"/><rect x="817.30" y="253.24" width="5.95" height="5.95"/><rect x="829.19" y="253.24" width="5.95" height="5.95"/><rect x="835.14" y="253.24" width="5.95" height="5.95"/><rect x="870.81" y="253.24" width="5.95" height="5.95"/><rect x="888.65" y="253.24" width="5.95" height="5.95"/><rect x="763.78" y="259.19" width="5.95" height="5.95"/><rect x="787.57" y="259.19" width="5.95" height="5.95"/><rect x="793.51" y="259.19" width="5.95" height="5.95"/><rect x="805.41" y="259.19" width="5.95" height="5.95"/><rect x="811.35" y="259.19" width="5.95" height="5.95"/><rect x="817.30" y="259.19" width="5.95" height="5.95"/><rect x="823.24" y="259.19" width="5.95" height="5.95"/><rect x="847.03" y="259.19" width="5.95" height="5.95"/><rect x="858.92" y="259.19" width="5.95" height="5.95"/><rect x="876.76" y="259.19" width="5.95" height="5.95"/><rect x="882.70" y="259.19" width="5.95" height="5.95"/><rect x="912.43" y="259.19" width="5.95" height="5.95"/><rect x="924.32" y="259.19" width="5.95" height="5.95"/><rect x="775.68" y="265.14" width="5.95" height="5.95"/><rect x="787.57" y="265.14" width="5.95" height="5.95"/><rect x="793.51" y="265.14" width="5.95" height="5.95"/><rect x="799.46" y="265.14" width="5.95" height="5.95"/><rect x="823.24" y="265.14" width="5.95" height="5.95"/><rect x="835.14" y="265.14" width="5.95" height="5.95"/><rect x="864.86" y="265.14" width="5.95" height="5.95"/><rect x="882.70" y="265.14" width="5.95" height="5.95"/><rect x="912.43" y="265.14" width="5.95" height="5.95"/><rect x="918.38" y="265.14" width="5.95" height="5.95"/><rect x="763.78" y="271.08" width="5.95" height="5.95"/><rect x="775.68" y="271.08" width="5.95" height="5.95"/><rect x="781.62" y="271.08" width="5.95" height="5.95"/><rect x="787.57" y="271.08" width="5.95" height="5.95"/><rect x="817.30" y="271.08" width="5.95" height="5.95"/><rect x="823.24" y="271.08" width="5.95" height="5.95"/><rect x="841.08" y="271.08" width="5.95" height="5.95"/><rect x="847.03" y="271.08" width="5.95" height="5.95"/><rect x="852.97" y="271.08" width="5.95" height="5.95"/><rect x="876.76" y="271.08" width="5.95" height="5.95"/><rect x="882.70" y="271.08" width="5.95" height="5.95"/><rect x="894.59" y="271.08" width="5.95" height="5.95"/><rect x="900.54" y="271.08" width="5.95" height="5.95"/><rect x="906.49" y="271.08" width="5.95" height="5.95"/><rect x="930.27" y="271.08" width="5.95" height="5.95"/><rect x="763.78" y="277.03" width="5.95" height="5.95"/><rect x="769.73" y="277.03" width="5.95" height="5.95"/><rect x="775.68" y="277.03" width="5.95" height="5.95"/><rect x="781.62" y="277.03" width="5.95" height="5.95"/><rect x="793.51" y="277.03" width="5.95" height="5.95"/><rect x="799.46" y="277.03" width="5.95" height="5.95"/><rect x="805.41" y="277.03" width="5.95" height="5.95"/><rect x="817.30" y="277.03" width="5.95" height="5.95"/><rect x="829.19" y="277.03" width="5.95" height="5.95"/><rect x="835.14" y="277.03" width="5.95" height="5.95"/><rect x="841.08" y="277.03" width="5.95" height="5.95"/><rect x="847.03" y="277.03" width="5.95" height="5.95"/><rect x="852.97" y="277.03" width="5.95" height="5.95"/><rect x="858.92" y="277.03" width="5.95" height="5.95"/><rect x="882.70" y="277.03" width="5.95" height="5.95"/><rect x="888.65" y="277.03" width="5.95" height="5.95"/><rect x="894.59" y="277.03" width="5.95" height="5.95"/><rect x="912.43" y="277.03" width="5.95" height="5.95"/><rect x="918.38" y="277.03" width="5.95" height="5.95"/><rect x="775.68" y="282.97" width="5.95" height="5.95"/><rect x="793.51" y="282.97" width="5.95" height="5.95"/><rect x="811.35" y="282.97" width="5.95" height="5.95"/><rect x="841.08" y="282.97" width="5.95" height="5.95"/><rect x="858.92" y="282.97" width="5.95" height="5.95"/><rect x="870.81" y="282.97" width="5.95" height="5.95"/><rect x="900.54" y="282.97" width="5.95" height="5.95"/><rect x="924.32" y="282.97" width="5.95" height="5.95"/><rect x="769.73" y="288.92" width="5.95" height="5.95"/><rect x="775.68" y="288.92" width="5.95" height="5.95"/><rect x="781.62" y="288.92" width="5.95" height="5.95"/><rect x="799.46" y="288.92" width="5.95" height="5.95"/><rect x="811.35" y="288.92" width="5.95" height="5.95"/><rect x="829.19" y="288.92" width="5.95" height="5.95"/><rect x="847.03" y="288.92" width="5.95" height="5.95"/><rect x="864.86" y="288.92" width="5.95" height="5.95"/><rect x="888.65" y="288.92" width="5.95" height="5.95"/><rect x="912.43" y="288.92" width="5.95" height="5.95"/><rect x="918.38" y="288.92" width="5.95" height="5.95"/><rect x="763.78" y="294.86" width="5.95" height="5.95"/><rect x="769.73" y="294.86" width="5.95" height="5.95"/><rect x="775.68" y="294.86" width="5.95" height="5.95"/><rect x="781.62" y="294.86" width="5.95" height="5.95"/><rect x="793.51" y="294.86" width="5.95" height="5.95"/><rect x="805.41" y="294.86" width="5.95" height="5.95"/><rect x="864.86" y="294.86" width="5.95" height="5.95"/><rect x="870.81" y="294.86" width="5.95" height="5.95"/><rect x="876.76" y="294.86" width="5.95" height="5.95"/><rect x="882.70" y="294.86" width="5.95" height="5.95"/><rect x="888.65" y="294.86" width="5.95" height="5.95"/><rect x="894.59" y="294.86" width="5.95" height="5.95"/><rect x="900.54" y="294.86" width="5.95" height="5.95"/><rect x="906.49" y="294.86" width="5.95" height="5.95"/><rect x="918.38" y="294.86" width="5.95" height="5.95"/><rect x="930.27" y="294.86" width="5.95" height="5.95"/><rect x="763.78" y="300.81" width="5.95" height="5.95"/><rect x="787.57" y="300.81" width="5.95" height="5.95"/><rect x="799.46" y="300.81" width="5.95" height="5.95"/><rect x="835.14" y="300.81" width="5.95" height="5.95"/><rect x="852.97" y="300.81" width="5.95" height="5.95"/><rect x="858.92" y="300.81" width="5.95" height="5.95"/><rect x="870.81" y="300.81" width="5.95" height="5.95"/><rect x="882.70" y="300.81" width="5.95" height="5.95"/><rect x="894.59" y="300.81" width="5.95" height="5.95"/><rect x="900.54" y="300.81" width="5.95" height="5.95"/><rect x="906.49" y="300.81" width="5.95" height="5.95"/><rect x="918.38" y="300.81" width="5.95" height="5.95"/><rect x="763.78" y="306.76" width="5.95" height="5.95"/><rect x="781.62" y="306.76" width="5.95" height="5.95"/><rect x="805.41" y="306.76" width="5.95" height="5.95"/><rect x="817.30" y="306.76" width="5.95" height="5.95"/><rect x="847.03" y="306.76" width="5.95" height="5.95"/><rect x="858.92" y="306.76" width="5.95" height="5.95"/><rect x="870.81" y="306.76" width="5.95" height="5.95"/><rect x="876.76" y="306.76" width="5.95" height="5.95"/><rect x="882.70" y="306.76" width="5.95" height="5.95"/><rect x="906.49" y="306.76" width="5.95" height="5.95"/><rect x="924.32" y="306.76" width="5.95" height="5.95"/><rect x="763.78" y="312.70" width="5.95" height="5.95"/><rect x="781.62" y="312.70" width="5.95" height="5.95"/><rect x="793.51" y="312.70" width="5.95" height="5.95"/><rect x="799.46" y="312.70" width="5.95" height="5.95"/><rect x="823.24" y="312.70" width="5.95" height="5.95"/><rect x="829.19" y="312.70" width="5.95" height="5.95"/><rect x="835.14" y="312.70" width="5.95" height="5.95"/><rect x="864.86" y="312.70" width="5.95" height="5.95"/><rect x="882.70" y="312.70" width="5.95" height="5.95"/><rect x="888.65" y="312.70" width="5.95" height="5.95"/><rect x="894.59" y="312.70" width="5.95" height="5.95"/><rect x="900.54" y="312.70" width="5.95" height="5.95"/><rect x="906.49" y="312.70" width="5.95" height="5.95"/><rect x="918.38" y="312.70" width="5.95" height="5.95"/><rect x="924.32" y="312.70" width="5.95" height="5.95"/><rect x="930.27" y="312.70" width="5.95" height="5.95"/><rect x="811.35" y="318.65" width="5.95" height="5.95"/><rect x="817.30" y="318.65" width="5.95" height="5.95"/><rect x="841.08" y="318.65" width="5.95" height="5.95"/><rect x="847.03" y="318.65" width="5.95" height="5.95"/><rect x="858.92" y="318.65" width="5.95" height="5.95"/><rect x="882.70" y="318.65" width="5.95" height="5.95"/><rect x="906.49" y="318.65" width="5.95" height="5.95"/><rect x="912.43" y="318.65" width="5.95" height="5.95"/><rect x="918.38" y="318.65" width="5.95" height="5.95"/><rect x="924.32" y="318.65" width="5.95" height="5.95"/><rect x="930.27" y="318.65" width="5.95" height="5.95"/><rect x="763.78" y="324.59" width="5.95" height="5.95"/><rect x="769.73" y="324.59" width="5.95" height="5.95"/><rect x="775.68" y="324.59" width="5.95" height="5.95"/><rect x="781.62" y="324.59" width="5.95" height="5.95"/><rect x="787.57" y="324.59" width="5.95" height="5.95"/><rect x="793.51" y="324.59" width="5.95" height="5.95"/><rect x="799.46" y="324.59" width="5.95" height="5.95"/><rect x="817.30" y="324.59" width="5.95" height="5.95"/><rect x="823.24" y="324.59" width="5.95" height="5.95"/><rect x="829.19" y="324.59" width="5.95" height="5.95"/><rect x="835.14" y="324.59" width="5.95" height="5.95"/><rect x="841.08" y="324.59" width="5.95" height="5.95"/><rect x="847.03" y="324.59" width="5.95" height="5.95"/><rect x="852.97" y="324.59" width="5.95" height="5.95"/><rect x="858.92" y="324.59" width="5.95" height="5.95"/><rect x="876.76" y="324.59" width="5.95" height="5.95"/><rect x="882.70" y="324.59" width="5.95" height="5.95"/><rect x="894.59" y="324.59" width="5.95" height="5.95"/><rect x="906.49" y="324.59" width="5.95" height="5.95"/><rect x="912.43" y="324.59" width="5.95" height="5.95"/><rect x="918.38" y="324.59" width="5.95" height="5.95"/><rect x="763.78" y="330.54" width="5.95" height="5.95"/><rect x="799.46" y="330.54" width="5.95" height="5.95"/><rect x="811.35" y="330.54" width="5.95" height="5.95"/><rect x="817.30" y="330.54" width="5.95" height="5.95"/><rect x="841.08" y="330.54" width="5.95" height="5.95"/><rect x="852.97" y="330.54" width="5.95" height="5.95"/><rect x="876.76" y="330.54" width="5.95" height="5.95"/><rect x="882.70" y="330.54" width="5.95" height="5.95"/><rect x="906.49" y="330.54" width="5.95" height="5.95"/><rect x="763.78" y="336.49" width="5.95" height="5.95"/><rect x="775.68" y="336.49" width="5.95" height="5.95"/><rect x="781.62" y="336.49" width="5.95" height="5.95"/><rect x="787.57" y="336.49" width="5.95" height="5.95"/><rect x="799.46" y="336.49" width="5.95" height="5.95"/><rect x="811.35" y="336.49" width="5.95" height="5.95"/><rect x="817.30" y="336.49" width="5.95" height="5.95"/><rect x="847.03" y="336.49" width="5.95" height="5.95"/><rect x="864.86" y="336.49" width="5.95" height="5.95"/><rect x="882.70" y="336.49" width="5.95" height="5.95"/><rect x="888.65" y="336.49" width="5.95" height="5.95"/><rect x="894.59" y="336.49" width="5.95" height="5.95"/><rect x="900.54" y="336.49" width="5.95" height="5.95"/><rect x="906.49" y="336.49" width="5.95" height="5.95"/><rect x="918.38" y="336.49" width="5.95" height="5.95"/><rect x="924.32" y="336.49" width="5.95" height="5.95"/><rect x="763.78" y="342.43" width="5.95" height="5.95"/><rect x="775.68" y="342.43" width="5.95" height="5.95"/><rect x="781.62" y="342.43" width="5.95" height="5.95"/><rect x="787.57" y="342.43" width="5.95" height="5.95"/><rect x="799.46" y="342.43" width="5.95" height="5.95"/><rect x="811.35" y="342.43" width="5.95" height="5.95"/><rect x="817.30" y="342.43" width="5.95" height="5.95"/><rect x="829.19" y="342.43" width="5.95" height="5.95"/><rect x="835.14" y="342.43" width="5.95" height="5.95"/><rect x="858.92" y="342.43" width="5.95" height="5.95"/><rect x="870.81" y="342.43" width="5.95" height="5.95"/><rect x="876.76" y="342.43" width="5.95" height="5.95"/><rect x="912.43" y="342.43" width="5.95" height="5.95"/><rect x="918.38" y="342.43" width="5.95" height="5.95"/><rect x="924.32" y="342.43" width="5.95" height="5.95"/><rect x="930.27" y="342.43" width="5.95" height="5.95"/><rect x="763.78" y="348.38" width="5.95" height="5.95"/><rect x="775.68" y="348.38" width="5.95" height="5.95"/><rect x="781.62" y="348.38" width="5.95" height="5.95"/><rect x="787.57" y="348.38" width="5.95" height="5.95"/><rect x="799.46" y="348.38" width="5.95" height="5.95"/><rect x="811.35" y="348.38" width="5.95" height="5.95"/><rect x="817.30" y="348.38" width="5.95" height="5.95"/><rect x="823.24" y="348.38" width="5.95" height="5.95"/><rect x="852.97" y="348.38" width="5.95" height="5.95"/><rect x="864.86" y="348.38" width="5.95" height="5.95"/><rect x="870.81" y="348.38" width="5.95" height="5.95"/><rect x="894.59" y="348.38" width="5.95" height="5.95"/><rect x="900.54" y="348.38" width="5.95" height="5.95"/><rect x="906.49" y="348.38" width="5.95" height="5.95"/><rect x="912.43" y="348.38" width="5.95" height="5.95"/><rect x="918.38" y="348.38" width="5.95" height="5.95"/><rect x="924.32" y="348.38" width="5.95" height="5.95"/><rect x="763.78" y="354.32" width="5.95" height="5.95"/><rect x="799.46" y="354.32" width="5.95" height="5.95"/><rect x="835.14" y="354.32" width="5.95" height="5.95"/><rect x="841.08" y="354.32" width="5.95" height="5.95"/><rect x="858.92" y="354.32" width="5.95" height="5.95"/><rect x="870.81" y="354.32" width="5.95" height="5.95"/><rect x="882.70" y="354.32" width="5.95" height="5.95"/><rect x="888.65" y="354.32" width="5.95" height="5.95"/><rect x="900.54" y="354.32" width="5.95" height="5.95"/><rect x="912.43" y="354.32" width="5.95" height="5.95"/><rect x="924.32" y="354.32" width="5.95" height="5.95"/><rect x="763.78" y="360.27" width="5.95" height="5.95"/><rect x="769.73" y="360.27" width="5.95" height="5.95"/><rect x="775.68" y="360.27" width="5.95" height="5.95"/><rect x="781.62" y="360.27" width="5.95" height="5.95"/><rect x="787.57" y="360.27" width="5.95" height="5.95"/><rect x="793.51" y="360.27" width="5.95" height="5.95"/><rect x="799.46" y="360.27" width="5.95" height="5.95"/><rect x="811.35" y="360.27" width="5.95" height="5.95"/><rect x="823.24" y="360.27" width="5.95" height="5.95"/><rect x="829.19" y="360.27" width="5.95" height="5.95"/><rect x="864.86" y="360.27" width="5.95" height="5.95"/><rect x="870.81" y="360.27" width="5.95" height="5.95"/><rect x="876.76" y="360.27" width="5.95" height="5.95"/><rect x="888.65" y="360.27" width="5.95" height="5.95"/><rect x="894.59" y="360.27" width="5.95" height="5.95"/><rect x="906.49" y="360.27" width="5.95" height="5.95"/><rect x="912.43" y="360.27" width="5.95" height="5.95"/><rect x="918.38" y="360.27" width="5.95" height="5.95"/>
</g>
<text x="850" y="410" text-anchor="middle" class="body" font-size="18" fill="#9aa6c2">Scan to visit</text>
</svg>
